<?xml version="1.0" encoding="utf-8"?>
<!-- Generator: Adobe Illustrator 16.0.3, SVG Export Plug-In . SVG Version: 6.00 Build 0)  -->
<!DOCTYPE svg PUBLIC "-//W3C//DTD SVG 1.1//EN" "http://www.w3.org/Graphics/SVG/1.1/DTD/svg11.dtd">
<svg version="1.1" id="Layer_13" xmlns="http://www.w3.org/2000/svg" xmlns:xlink="http://www.w3.org/1999/xlink" x="0px" y="0px"
	 width="266.746px" height="285.728px" viewBox="0 0 266.746 285.728" enable-background="new 0 0 266.746 285.728"
	 xml:space="preserve">
<path fill="#000000" d="M266.736,79.937c0.004-1.537-0.028-3.075-0.007-4.611c0.016-1.046-0.065-1.778-0.725-2.628
	c-0.57-0.735-1.144-1.468-1.718-2.199c-1.914-2.434-3.849-4.85-5.805-7.25c-5.34-6.554-10.811-13.021-16.618-19.167
	c-3.4-3.599-6.913-7.213-10.884-10.191V5.639c0,0,0.75-3.875-2.5-5.5c-2.339-0.46-4.635,0.232-6.325,1.894
	c-1.67,1.64-3.331,3.287-5.024,4.902c-4.979,4.749-10.158,9.56-16.025,13.205c0,0-35.85,4.267-50.362,19.633
	c0,0-15.763,13.617-32.513,46.117c0,0-1.125,3.5-7,3.5c0,0-6.498-0.079-28-2.25c-7.162-1.008-14.506-2.175-21.75-2.175l0.012,0.014
	c-19.722-0.029-38.144,12.169-47.482,29.259c-4.636,7.404-7.769,15.726-9.972,24.15c-2.656,10.159-3.961,20.681-4.026,31.176
	L0,169.556c0.154,13.16,0.365,26.319,0.598,39.479c0.294,16.649,0.625,33.301,1.134,49.945c0.241,7.859,0.467,15.729,0.998,23.576
	c0,1.179,2.145,1.722,2.974,1.962c2.418,0.701,4.973,0.966,7.478,1.11c3.055,0.175,6.135,0.126,9.178-0.196
	c2.152-0.229,4.432-0.53,6.436-1.398c0.505-0.219,1.075-0.497,1.407-0.955c0.485-0.669,0.194-1.985,0.21-2.762
	c0.055-2.692,0.205-5.383,0.433-8.065c0.46-5.402,1.235-10.776,2.234-16.104c3.137-16.735,8.31-33.165,14.806-48.895
	c0.632-1.532,1.274-3.061,1.96-4.569l-0.002-0.002c2.975-5.91,5.49-12.844,7.355-20.494c21.322,8.983,45.372,11.616,68.322,10.221
	c8.001-0.486,15.976-1.519,23.819-3.18l0.001,0.001c1.889-0.387,3.938,0.359,5.386,1.556c2.278,1.88,3.179,4.726,4.271,7.359
	c2.401,5.789,4.735,11.602,6.827,17.511c7.105,20.067,11.975,41.16,12.59,62.498c0.043,1.468,0.064,2.936,0.064,4.403v0.104
	c0,1.377,2.863,1.919,3.791,2.137c3.121,0.734,6.387,0.927,9.584,0.927c3.114,0,6.282-0.188,9.329-0.868
	c0.959-0.214,4.046-0.756,4.046-2.195v-0.104V146.483c0,0,3.115-38.671,11.238-54.426c0,0,0.004-0.01,0.01-0.021
	c0.064-0.109,0.125-0.222,0.189-0.331c0.402-0.577,1.476-1.556,3.75-0.441l15.938,7c0,0,0.688,0.25,1.625,1.188l2.662,2.662
	c3.033,3.038,6.827,0.7,9.876-0.999c1.793-0.998,3.481-2.185,5.063-3.49c2.405-1.986,4.563-4.269,6.426-6.771
	c1.135-1.526,2.159-3.133,3.067-4.804c0.488-0.898,1.018-1.827,1.368-2.79C266.831,82.193,266.734,81.05,266.736,79.937
	C266.74,78.501,266.734,81.225,266.736,79.937z"/>
<path fill="#00e5ff" d="M40.017,120.716v-9.659l7.667-7.667V86.967c-1.426,0.411-2.845,0.883-4.252,1.421v13.242l-7.667,7.667
	v11.419c-2.655,1.018-4.256,3.862-3.732,6.66c0.521,2.781,3.03,4.86,5.858,4.86c2.729,0,5.177-1.937,5.802-4.595
	C44.368,124.772,42.766,121.771,40.017,120.716z M37.891,127.984c-2.202,0-2.202-3.415,0-3.415S40.093,127.984,37.891,127.984z"/>
<path fill="#00e5ff" d="M64.767,85.09c-1.069-0.067-2.141-0.123-3.212-0.124v23.019l-7.667,7.667v5.064
	c-2.655,1.018-4.256,3.862-3.732,6.66c0.521,2.781,3.03,4.86,5.858,4.86c2.729,0,5.177-1.937,5.802-4.595
	c0.675-2.869-0.928-5.871-3.676-6.925v-3.304l7.667-7.667V85.161C65.46,85.136,65.114,85.116,64.767,85.09
	C64.179,85.053,64.857,85.097,64.767,85.09z M56.014,127.984c-2.202,0-2.202-3.415,0-3.415S58.216,127.984,56.014,127.984z"/>
<path fill="#00e5ff" d="M53.313,113.115c0-0.866-0.19-1.687-0.523-2.43l4.356-4.356V85.182c-1.416,0.127-2.834,0.321-4.252,0.573
	v18.813l-3.111,3.111c-5.458-2.449-10.76,4.152-7.238,8.954C45.874,121.17,53.313,118.751,53.313,113.115z M47.353,114.822
	c-2.202,0-2.202-3.415,0-3.415S49.555,114.822,47.353,114.822z"/>
<path fill="#00e5ff" d="M25.372,126.277c0-2.537-1.596-4.702-3.834-5.561v-17.121c-1.542,1.727-2.963,3.518-4.252,5.363v11.757
	c-4.438,1.702-5.125,7.881-1.177,10.519C19.993,133.831,25.372,130.94,25.372,126.277z M19.412,127.984
	c-2.202,0-2.202-3.415,0-3.415S21.614,127.984,19.412,127.984z"/>
<path fill="#00e5ff" d="M30.787,133.405v-25.327l7.667-7.667v-9.824c-1.438,0.723-2.858,1.51-4.252,2.372v5.691l-7.667,7.667v27.088
	c-2.655,1.019-4.256,3.862-3.732,6.66c0.521,2.781,3.03,4.86,5.858,4.86c2.729,0,5.177-1.938,5.802-4.595
	C35.138,137.461,33.535,134.459,30.787,133.405z M28.661,140.673c-2.202,0-2.202-3.415,0-3.415S30.863,140.673,28.661,140.673z"/>
<path fill="#00e5ff" d="M102.888,177.664v-41.352l-28.387-28.387V86.022c-1.379-0.161-2.821-0.32-4.252-0.465v24.13l28.387,28.387
	v39.59c-2.655,1.02-4.256,3.862-3.732,6.661c0.521,2.781,3.031,4.859,5.858,4.859c2.729,0,5.177-1.937,5.802-4.594
	C107.239,181.721,105.636,178.719,102.888,177.664z M100.762,184.933c-2.203,0-2.202-3.415,0-3.415S102.965,184.933,100.762,184.933
	z"/>
<path fill="#00e5ff" d="M121.555,177.664v-47.792l-28.387-28.387V88.096c-1.331-0.121-2.741-0.252-4.252-0.397v15.548l28.387,28.387
	v46.031c-2.655,1.02-4.256,3.862-3.732,6.661c0.521,2.781,3.031,4.859,5.858,4.859c2.729,0,5.177-1.937,5.802-4.594
	C125.906,181.721,124.303,178.719,121.555,177.664z M119.429,184.933c-2.203,0-2.202-3.415,0-3.415S121.632,184.933,119.429,184.933
	z"/>
<path fill="#00e5ff" d="M131.249,166.995v-40.53l-28.387-28.387v-9.173c-1.25-0.093-2.664-0.204-4.252-0.335v11.27l28.387,28.387
	v38.769c-2.655,1.02-4.256,3.861-3.732,6.66c0.521,2.781,3.03,4.86,5.858,4.86c2.729,0,5.177-1.938,5.802-4.595
	C135.6,171.051,133.996,168.05,131.249,166.995z M129.123,174.264c-2.202,0-2.203-3.415,0-3.415S131.325,174.264,129.123,174.264z"
	/>
<path fill="#00e5ff" d="M115.99,172.556c0-2.536-1.596-4.701-3.834-5.561v-34.213l-28.387-28.386V87.193
	c-0.182-0.019-0.355-0.036-0.539-0.054c0,0-1.482-0.21-3.713-0.499v19.516l28.387,28.387v32.452
	c-4.438,1.704-5.125,7.881-1.177,10.52C110.611,180.11,115.99,177.219,115.99,172.556z M110.03,174.264
	c-2.202,0-2.203-3.415,0-3.415S112.232,174.264,110.03,174.264z"/>
<path fill="#00e5ff" d="M199.252,114.872c-2.536,0-4.702,1.596-5.562,3.833h-56.846l-24.693-24.693v-4.658
	c-0.295,0.02-0.599,0.035-0.922,0.035c0,0-0.955-0.012-3.33-0.147v6.532l27.184,27.183h58.607c1.704,4.438,7.882,5.125,10.521,1.177
	C206.807,120.25,203.916,114.872,199.252,114.872z M199.252,122.539c-2.202,0-2.202-3.415,0-3.415S201.455,122.539,199.252,122.539z
	"/>
<path fill="#00e5ff" d="M202.07,96.017c-2.536,0-4.702,1.596-5.562,3.833H144.12l-14.256-14.256V65.766
	c-1.385,2.134-2.805,4.406-4.252,6.828v14.762l16.746,16.747h54.15c1.704,4.438,7.882,5.125,10.521,1.177
	C209.625,101.395,206.733,96.017,202.07,96.017z M202.07,103.684c-2.202,0-2.202-3.415,0-3.415S204.272,103.684,202.07,103.684z"/>
<path fill="#00e5ff" d="M184.499,113.44c1.02,2.655,3.863,4.256,6.661,3.732c2.781-0.521,4.86-3.03,4.86-5.858
	c0-2.729-1.938-5.177-4.595-5.802c-2.869-0.675-5.871,0.928-6.927,3.676h-43.819L121.55,90.06V79.666
	c-1.1,1.994-2.208,4.064-3.32,6.223c0,0-0.213,0.658-0.932,1.404v4.528l21.619,21.619H184.499z M190.06,109.606
	c2.202,0,2.202,3.415,0,3.415S187.858,109.606,190.06,109.606z"/>
<path fill="#00e5ff" d="M151.299,61.663c-2.655,1.018-4.257,3.862-3.732,6.66c0.521,2.781,3.03,4.86,5.858,4.86
	c2.729,0,5.177-1.937,5.803-4.595c0.675-2.869-0.929-5.871-3.677-6.925v-6.687l-4.717-4.717V39.682
	c-0.029,0.031-0.063,0.06-0.092,0.091c0,0-1.537,1.328-4.16,4.143v8.105l4.717,4.717V61.663z M153.425,65.516
	c2.202,0,2.202,3.415,0,3.415S151.223,65.516,153.425,65.516z"/>
<path fill="#00e5ff" d="M160.215,72.979c-2.655,1.019-4.257,3.862-3.732,6.66c0.521,2.781,3.03,4.86,5.858,4.86
	c2.729,0,5.177-1.937,5.803-4.595c0.675-2.869-0.929-5.871-3.677-6.925V51.639l-4.717-4.717V32.854
	c-1.486,0.87-2.915,1.79-4.252,2.771v13.057l4.717,4.717V72.979z M162.341,76.832c2.202,0,2.202,3.415,0,3.415
	S160.139,76.832,162.341,76.832z"/>
<path fill="#00e5ff" d="M168.759,61.663c-2.655,1.018-4.257,3.862-3.732,6.66c0.521,2.781,3.03,4.86,5.858,4.86
	c2.729,0,5.177-1.937,5.802-4.595c0.676-2.869-0.928-5.871-3.676-6.925V47.719l-4.717-4.717V28.647
	c-1.44,0.6-2.86,1.239-4.252,1.916v14.2l4.717,4.717V61.663z M170.885,65.516c2.202,0,2.202,3.415,0,3.415
	S168.683,65.516,170.885,65.516z"/>
<path fill="#00e5ff" d="M177.434,49.985c-2.655,1.019-4.257,3.862-3.732,6.66c0.521,2.781,3.03,4.86,5.858,4.86
	c2.729,0,5.177-1.937,5.803-4.595c0.675-2.869-0.929-5.871-3.677-6.925v-6.1l-4.717-4.717V25.497
	c-1.409,0.445-2.83,0.923-4.252,1.435V40.93l4.717,4.717V49.985z M179.56,53.838c2.202,0,2.202,3.415,0,3.415
	S177.358,53.838,179.56,53.838z"/>
<path fill="#00e5ff" d="M183.991,42.41c0,5.636,7.439,8.055,10.769,3.518c3.522-4.802-1.779-11.4-7.237-8.955l-1.633-1.637V23.022
	c-1.372,0.333-2.793,0.697-4.252,1.098v12.975l2.878,2.884C184.181,40.723,183.991,41.544,183.991,42.41
	C183.991,45.696,183.991,41.544,183.991,42.41z M189.951,40.703c2.202,0,2.202,3.415,0,3.415S187.749,40.703,189.951,40.703z"/>
<path fill="#00e5ff" d="M227.805,76.098c-0.866,0-1.688,0.19-2.431,0.523l-21.955-21.956V37.474l-9.722-9.721v-6.416
	c-1.295,0.245-2.725,0.534-4.252,0.866v7.31l9.722,9.722v17.192l23.201,23.2c-2.453,5.458,4.154,10.759,8.954,7.238
	C235.861,83.537,233.441,76.098,227.805,76.098z M227.805,83.765c-2.202,0-2.202-3.415,0-3.415S230.007,83.765,227.805,83.765z"/>
<path fill="#00e5ff" d="M263.56,69.578c-0.775-0.982-1.67-2.106-2.666-3.347l-19.621,19.621c-2.653-1.287-5.915-0.39-7.55,2.056
	c-1.533,2.295-1.251,5.43,0.655,7.421c1.906,1.99,5.024,2.412,7.385,0.981c2.481-1.504,3.541-4.675,2.429-7.365L263.56,69.578z
	 M238.682,92.918c-2.202,0-2.202-3.415,0-3.415S240.884,92.918,238.682,92.918z"/>
<path fill="#00e5ff" d="M147.026,153.653c3.764,0.17,7.552,0.688,11.19,1.677c0.114-0.84,0.347-1.66,0.684-2.438
	c-4.396-1.582-9.295-4.346-12.109-8.194c4.73,0.492,9.591,3.378,13.146,6.385c0.496-0.672,1.092-1.277,1.775-1.806
	c-4.015-3.997-7.247-8.755-9.921-13.731L149.796,139l-6.438,3.717v7.433l-1.993,3.454
	C143.251,153.552,145.141,153.539,147.026,153.653C148.154,153.704,145.896,153.585,147.026,153.653z"/>
<path fill="#00e5ff" d="M154.664,172.747c2.026-3.177,4.375-6.182,7.041-8.848c-0.658-0.511-1.255-1.115-1.769-1.813
	c-3.569,3.016-8.408,5.87-13.147,6.386c2.826-3.848,7.704-6.604,12.105-8.193c-0.347-0.792-0.571-1.611-0.685-2.438
	c-5.463,1.485-11.206,1.895-16.847,1.725l1.995,3.457v7.431l6.437,3.716l1.996,3.457
	C152.683,175.965,153.624,174.322,154.664,172.747C155.271,171.795,154.041,173.69,154.664,172.747z"/>
<path fill="#00e5ff" d="M175.017,175.68c-1.73-3.344-3.184-6.883-4.142-10.528c-0.799,0.327-1.623,0.54-2.452,0.635
	c0.829,4.616,0.868,10.197-1.043,14.577c-1.928-4.366-1.869-9.979-1.043-14.585c-0.843-0.098-1.668-0.308-2.452-0.627
	c-1.457,5.479-3.964,10.648-6.932,15.458l3.991-0.002l6.437,3.716l6.435-3.716l3.991,0.002
	C176.816,179.003,175.863,177.369,175.017,175.68C174.498,174.676,175.523,176.69,175.017,175.68z"/>
<path fill="#00e5ff" d="M180.096,140.423c-2.022,3.176-4.372,6.19-7.042,8.848c0.66,0.51,1.256,1.117,1.771,1.813
	c3.567-3.017,8.409-5.87,13.147-6.386c-2.806,3.848-7.716,6.613-12.105,8.193c0.347,0.792,0.572,1.61,0.686,2.437
	c5.464-1.483,11.204-1.895,16.846-1.725l-1.995-3.454v-7.433L184.966,139l-1.996-3.455
	C182.076,137.206,181.138,138.849,180.096,140.423C179.49,141.376,180.72,139.48,180.096,140.423z"/>
<path fill="#00e5ff" d="M159.744,137.491c1.731,3.343,3.186,6.885,4.142,10.53c0.799-0.328,1.623-0.54,2.452-0.635
	c-0.826-4.603-0.882-10.215,1.044-14.578c1.927,4.362,1.872,9.986,1.042,14.587c0.843,0.097,1.667,0.306,2.452,0.625
	c1.44-5.481,3.973-10.648,6.931-15.458l-3.988,0.002l-6.437-3.718l-6.437,3.716l-3.991,0.002
	C157.946,134.169,158.899,135.803,159.744,137.491C160.263,138.494,159.238,136.48,159.744,137.491z"/>
<path fill="#00e5ff" d="M187.735,159.519c-3.763-0.173-7.55-0.69-11.188-1.677c-0.116,0.84-0.347,1.658-0.685,2.438
	c4.396,1.583,9.297,4.346,12.11,8.195c-4.739-0.517-9.576-3.37-13.146-6.384c-0.496,0.67-1.092,1.276-1.774,1.806
	c4.023,3.979,7.25,8.762,9.919,13.73l1.996-3.457l6.437-3.716v-7.435l1.995-3.453C191.511,159.623,189.62,159.631,187.735,159.519
	C186.607,159.467,188.864,159.586,187.735,159.519z"/>
<path fill="#ffffff" d="M173.313,153.162c-1.867-3.231-6.123-4.374-9.355-2.507c-3.232,1.866-4.374,6.123-2.508,9.355
	c1.867,3.231,6.124,4.373,9.356,2.507C174.038,160.651,175.178,156.394,173.313,153.162
	C171.42,149.887,175.203,156.437,173.313,153.162z"/>
<path fill="#00e5ff" d="M1.792,260.892h30.463c0.305-1.902,0.641-3.794,1.002-5.67H1.621C1.677,257.16,1.734,259.055,1.792,260.892z
	"/>
<path fill="#00e5ff" d="M1.5,250.892h32.639c0.413-1.916,0.851-3.807,1.305-5.67H1.354C1.401,247.139,1.451,249.031,1.5,250.892z"/>
<path fill="#00e5ff" d="M1.248,240.892h35.294c0.511-1.934,1.037-3.824,1.571-5.67H1.117C1.16,237.123,1.203,239.015,1.248,240.892z
	"/>
<path fill="#00e5ff" d="M176.999,260.892h28.231v-5.67h-29.065C176.468,257.089,176.747,258.979,176.999,260.892z"/>
<path fill="#00e5ff" d="M175.408,250.892h29.822v-5.67h-30.953C174.676,247.079,175.051,248.974,175.408,250.892z"/>
<path fill="#00e5ff" d="M173.295,240.892h31.935v-5.67h-33.349C172.369,237.067,172.839,238.963,173.295,240.892z"/>
</svg>
